HIERARCHY
ROOT Hips
{
	OFFSET 0.000000 0.000000 0.000000
	CHANNELS 6 Xposition Yposition Zposition Zrotation Yrotation Xrotation 
	JOINT LHipJoint
	{
		OFFSET 0.000000 0.000000 0.000000
		CHANNELS 3 Zrotation Yrotation Xrotation
		JOINT LeftUpLeg
		{
			OFFSET 1.363060 -1.794630 0.839290
			CHANNELS 3 Zrotation Yrotation Xrotation
			JOINT LeftLeg
			{
				OFFSET 2.448110 -6.726130 0.000000
				CHANNELS 3 Zrotation Yrotation Xrotation
				JOINT LeftFoot
				{
					OFFSET 2.562200 -7.039590 0.000000
					CHANNELS 3 Zrotation Yrotation Xrotation
					JOINT LeftToeBase
					{
						OFFSET 0.157640 -0.433110 2.322550
						CHANNELS 3 Zrotation Yrotation Xrotation
						End Site
						{
							OFFSET 0.000000 0.000000 0.000000
						}
					}
				}
			}
		}
	}
	JOINT RHipJoint
	{
		OFFSET 0.000000 0.000000 0.000000
		CHANNELS 3 Zrotation Yrotation Xrotation
		JOINT RightUpLeg
		{
			OFFSET -1.305520 -1.794630 0.839290
			CHANNELS 3 Zrotation Yrotation Xrotation
			JOINT RightLeg
			{
				OFFSET -2.542530 -6.985550 0.000000
				CHANNELS 3 Zrotation Yrotation Xrotation
				JOINT RightFoot
				{
					OFFSET -2.568260 -7.056230 0.000000
					CHANNELS 3 Zrotation Yrotation Xrotation
					JOINT RightToeBase
					{
						OFFSET -0.164730 -0.452590 2.363150
						CHANNELS 3 Zrotation Yrotation Xrotation
						End Site
						{
							OFFSET 0.000000 0.000000 0.000000
						}
					}
				}
			}
		}
	}
	JOINT LowerBack
	{
		OFFSET 0.000000 0.000000 0.000000
		CHANNELS 3 Zrotation Yrotation Xrotation
		JOINT Spine
		{
			OFFSET 0.028270 2.035590 -0.193380
			CHANNELS 3 Zrotation Yrotation Xrotation
			JOINT Spine1
			{
				OFFSET 0.056720 2.048850 -0.042750
				CHANNELS 3 Zrotation Yrotation Xrotation
				JOINT Neck
				{
					OFFSET 0.000000 0.000000 0.000000
					CHANNELS 3 Zrotation Yrotation Xrotation
					JOINT Neck1
					{
						OFFSET -0.054170 1.746240 0.172020
						CHANNELS 3 Zrotation Yrotation Xrotation
						JOINT Head
						{
							OFFSET 0.104070 1.761360 -0.123970
							CHANNELS 3 Zrotation Yrotation Xrotation
							End Site
							{
								OFFSET 0.000000 0.000000 0.000000
							}
						}
					}
				}
				JOINT LeftShoulder
				{
					OFFSET 0.000000 0.000000 0.000000
					CHANNELS 3 Zrotation Yrotation Xrotation
					JOINT LeftArm
					{
						OFFSET 3.362410 1.200890 -0.311210
						CHANNELS 3 Zrotation Yrotation Xrotation
						JOINT LeftForeArm
						{
							OFFSET 4.983000 -0.000000 -0.000000
							CHANNELS 3 Zrotation Yrotation Xrotation
							JOINT LeftHand
							{
								OFFSET 3.483560 -0.000000 -0.000000
								CHANNELS 3 Zrotation Yrotation Xrotation
								JOINT LeftFingerBase
								{
									OFFSET 0.000000 0.000000 0.000000
									CHANNELS 3 Zrotation Yrotation Xrotation
									JOINT LeftHandIndex1
									{
										OFFSET 0.715260 -0.000000 -0.000000
										CHANNELS 3 Zrotation Yrotation Xrotation
										End Site
										{
											OFFSET 0.000000 0.000000 0.000000
										}
									}
								}
								JOINT LThumb
								{
									OFFSET 0.000000 0.000000 0.000000
									CHANNELS 3 Zrotation Yrotation Xrotation
									End Site
									{
										OFFSET 0.000000 0.000000 0.000000
									}
								}
							}
						}
					}
				}
				JOINT RightShoulder
				{
					OFFSET 0.000000 0.000000 0.000000
					CHANNELS 3 Zrotation Yrotation Xrotation
					JOINT RightArm
					{
						OFFSET -3.136600 1.374050 -0.404650
						CHANNELS 3 Zrotation Yrotation Xrotation
						JOINT RightForeArm
						{
							OFFSET -5.241900 -0.000000 -0.000000
							CHANNELS 3 Zrotation Yrotation Xrotation
							JOINT RightHand
							{
								OFFSET -3.444170 -0.000000 -0.000000
								CHANNELS 3 Zrotation Yrotation Xrotation
								JOINT RightFingerBase
								{
									OFFSET 0.000000 0.000000 0.000000
									CHANNELS 3 Zrotation Yrotation Xrotation
									JOINT RightHandIndex1
									{
										OFFSET -0.622530 -0.000000 -0.000000
										CHANNELS 3 Zrotation Yrotation Xrotation
										End Site
										{
											OFFSET 0.000000 0.000000 0.000000
										}
									}
								}
								JOINT RThumb
								{
									OFFSET 0.000000 0.000000 0.000000
									CHANNELS 3 Zrotation Yrotation Xrotation
									End Site
									{
										OFFSET 0.000000 0.000000 0.000000
									}
								}
							}
						}
					}
				}
			}
		}
	}
}
MOTION
Frames: 6
Frame Time: 0.008333
1.367694 17.190600 2.196994 -1.412174 -69.755665 9.297729 -9.320627 2.031280 6.057371 -10.343400 -15.782201 -12.938966 -1.790895 -0.135179 16.825463 1.610921 7.583623 -11.441240 -0.587400 -0.000000 -29.938500 9.693646 -2.370640 -0.547961 6.745691 -13.057790 -3.044084 1.516031 0.381458 8.610169 -3.058799 -15.696696 -5.234436 -1.558200 -0.000000 -61.211900 -3.611997 -1.306248 -6.180949 -1.383514 -1.189117 -3.632891 -5.887261 -1.243423 1.769681 12.191567 -14.833756 -6.697782 -2.214768 -0.187732 0.276427 0.000000 0.000000 0.000000 0.394943 11.200883 -1.377083 -62.846302 -3.132770 -7.764513 -0.716898 -70.034365 -0.064967 19.134045 -8.342865 -1.480613 -0.252722 0.328686 0.000000 0.000000 0.000000 0.000000 0.000000 0.000000 0.000000 11.526051 -11.401108 -0.241970 65.795589 -4.777352 -18.163206 1.887432 45.232452 0.000182 -15.262972 13.613634 -1.874416 0.172572 -0.167604 0.000000 0.000000 0.000000 0.000000 0.000000 0.000000 0.000000 
1.384021 17.189205 2.225971 -2.066941 -69.307564 9.836301 -9.372739 2.020056 6.060723 -10.116589 -15.872139 -13.051679 -1.777146 -0.098191 17.156692 1.568222 7.304087 -11.532206 -0.590300 0.000001 -30.093201 9.664344 -2.315986 -0.718957 6.964659 -13.345915 -4.655930 1.512152 0.090806 11.886104 -3.072610 -15.549674 -5.847070 -1.341200 0.000000 -60.827900 -3.295353 -1.389372 -6.036889 -1.311841 -1.293843 -3.598061 -5.890580 -1.342222 1.787221 12.260093 -15.129210 -6.760143 -2.230859 -0.188048 0.260016 0.000000 0.000000 0.000000 0.380752 10.955213 -1.401239 -63.249240 -3.557683 -7.522274 -0.744472 -69.522035 -0.065284 19.145254 -8.349290 -1.482430 -0.250582 0.328514 0.000000 0.000000 0.000000 0.000000 0.000000 0.000000 0.000000 11.727169 -11.828444 -0.207218 66.197212 -5.227011 -18.551767 1.953253 44.356554 0.002016 -15.048380 13.560223 -1.839952 0.172284 -0.161496 0.000000 0.000000 0.000000 0.000000 0.000000 0.000000 0.000000 
1.401655 17.188637 2.254116 -2.592782 -68.961690 10.351700 -9.422033 2.008121 6.070406 -9.919922 -15.948007 -13.264381 -1.763976 -0.070601 17.424694 1.532618 7.070651 -11.587527 -0.587600 -0.000000 -30.210300 9.649789 -2.247704 -0.853038 7.135164 -13.595749 -6.491451 1.518608 -0.182264 15.009594 -3.025938 -15.147988 -6.340379 -1.139700 0.000000 -60.554300 -2.985149 -1.483645 -5.940002 -1.238950 -1.409592 -3.573138 -5.885448 -1.453188 1.806768 12.316333 -15.435450 -6.849421 -2.244648 -0.187904 0.237535 0.000000 0.000000 0.000000 0.424533 10.708296 -1.415612 -63.700756 -3.963748 -7.368045 -0.771027 -69.033157 -0.065845 19.165054 -8.365150 -1.486648 -0.248526 0.329120 0.000000 0.000000 0.000000 0.000000 0.000000 0.000000 0.000000 11.911278 -12.258825 -0.173087 66.570420 -5.633763 -18.888838 2.005505 43.727775 0.003421 -14.840270 13.492712 -1.804879 0.172260 -0.156996 0.000000 0.000000 0.000000 0.000000 0.000000 0.000000 0.000000 
1.420889 17.189349 2.281944 -3.043777 -68.731115 10.896910 -9.473785 1.992401 6.077975 -9.738045 -15.985569 -13.573670 -1.749615 -0.052725 17.621890 1.502826 6.877672 -11.604742 -0.579400 0.000000 -30.305000 9.637816 -2.163386 -0.938106 7.284574 -13.735308 -8.488912 1.539307 -0.421242 17.807746 -2.930125 -14.522920 -6.741075 -0.958000 -0.000000 -60.446300 -2.662055 -1.585808 -5.890253 -1.161042 -1.534850 -3.557728 -5.873018 -1.574573 1.828993 12.361221 -15.750495 -6.969064 -2.255883 -0.187231 0.207998 0.000000 0.000000 0.000000 0.513598 10.474747 -1.419752 -64.190840 -4.357978 -7.296410 -0.796493 -68.576326 -0.066638 19.194789 -8.391368 -1.493663 -0.246610 0.330484 0.000000 0.000000 0.000000 0.000000 0.000000 0.000000 0.000000 12.078479 -12.687677 -0.138680 66.901675 -5.985704 -19.158795 2.044276 43.345897 0.004436 -14.649126 13.417799 -1.771401 0.172521 -0.154011 0.000000 0.000000 0.000000 0.000000 0.000000 0.000000 0.000000 
1.441599 17.191827 2.310371 -3.488679 -68.621304 11.553662 -9.535192 1.971831 6.081447 -9.542531 -15.954041 -14.016819 -1.731812 -0.043906 17.771520 1.475399 6.702304 -11.588373 -0.566000 0.000000 -30.381400 9.614398 -2.063135 -0.959470 7.452780 -13.706506 -10.634245 1.581502 -0.614604 20.169443 -2.798464 -13.706937 -7.100213 -0.791100 -0.000000 -60.538800 -2.296057 -1.692941 -5.902286 -1.072360 -1.669539 -3.556908 -5.854952 -1.706390 1.845569 12.392002 -16.046865 -7.111650 -2.266952 -0.186344 0.173590 0.000000 0.000000 0.000000 0.631196 10.225441 -1.411010 -64.701921 -4.686838 -7.326418 -0.819522 -68.197239 -0.067624 19.231662 -8.419557 -1.501575 -0.244739 0.332381 0.000000 0.000000 0.000000 0.000000 0.000000 0.000000 0.000000 12.225282 -13.084064 -0.100190 67.178676 -6.307524 -19.371548 2.069573 43.222980 0.005095 -14.473541 13.336119 -1.739418 0.172978 -0.152406 0.000000 0.000000 0.000000 0.000000 0.000000 0.000000 0.000000 
1.464466 17.196456 2.339758 -3.969315 -68.646780 12.350915 -9.609813 1.942891 6.071969 -9.326586 -15.843467 -14.565143 -1.708826 -0.044337 17.855208 1.451888 6.557215 -11.534280 -0.547700 0.000000 -30.452099 9.568698 -1.943785 -0.918329 7.647756 -13.475506 -12.885627 1.651345 -0.757011 22.010741 -2.641419 -12.726262 -7.461797 -0.634300 0.000000 -60.878000 -1.870972 -1.800130 -5.960802 -0.969913 -1.810095 -3.566481 -5.832161 -1.844586 1.860466 12.411158 -16.332189 -7.283635 -2.275877 -0.184961 0.132196 0.000000 0.000000 0.000000 0.761945 9.989264 -1.389389 -65.219418 -4.983985 -7.437670 -0.840463 -67.887342 -0.068817 19.278188 -8.448117 -1.510486 -0.242998 0.334816 0.000000 0.000000 0.000000 0.000000 0.000000 0.000000 0.000000 12.348959 -13.454701 -0.057109 67.389213 -6.559352 -19.507822 2.083081 43.322197 0.005441 -14.321410 13.256183 -1.710930 0.173644 -0.152074 0.000000 0.000000 0.000000 0.000000 0.000000 0.000000 0.000000 
